<svg width="25" height="25" viewBox="0 0 25 25" fill="none" xmlns="http://www.w3.org/2000/svg">
<path fill-rule="evenodd" clip-rule="evenodd" d="M9.05 7.31667C9.05 5.65073 10.4007 4.3 12.0667 4.3C13.7326 4.3 15.0833 5.65073 15.0833 7.31667V9.41675H9.05V7.31667ZM7.75 9.41675V7.31667C7.75 4.93276 9.68277 3 12.0667 3C14.4506 3 16.3833 4.93276 16.3833 7.31667V9.41675H16.65C18.0219 9.41675 19.1333 10.5282 19.1333 11.9001V18.3167C19.1333 19.6887 18.0219 20.8001 16.65 20.8001H7.48333C6.11143 20.8001 5 19.6887 5 18.3167V11.9001C5 10.5282 6.11143 9.41675 7.48333 9.41675H7.75ZM6.3 11.9001C6.3 11.2462 6.8294 10.7167 7.48333 10.7167H16.65C17.3039 10.7167 17.8333 11.2462 17.8333 11.9001V18.3167C17.8333 18.9707 17.3039 19.5001 16.65 19.5001H7.48333C6.8294 19.5001 6.3 18.9707 6.3 18.3167V11.9001Z" fill="#EEEEEE"/>
</svg>
