<svg width="43" height="43" viewBox="0 0 43 43" fill="none" xmlns="http://www.w3.org/2000/svg">
<path d="M16.0185 20.5451L12.1113 24.6614C11.8511 25.0764 11.7423 25.5683 11.8033 26.054C11.8643 26.5398 12.0915 26.9896 12.4464 27.3277C12.8012 27.6657 13.2622 27.8712 13.7513 27.9095C14.2404 27.9478 14.7278 27.8165 15.1312 27.5378L17.1253 25.3541L18.146 24.3741C18.4476 24.0833 18.7724 23.9935 19.1655 23.8475C19.5586 23.7016 19.907 23.6432 20.3258 23.6665C20.7446 23.6899 21.2583 23.6588 21.6326 23.8475C22.007 24.0363 22.3381 24.3003 22.6053 24.6228L23.4117 25.5966L30.6079 18.1649C30.2021 18.5904 29.9813 19.1587 29.9936 19.746C30.0059 20.3332 30.2503 20.8918 30.6736 21.3C31.0968 21.7082 31.6646 21.933 32.2532 21.9253C32.8419 21.9176 33.4036 21.6781 33.816 21.259L24.5384 30.4316C24.2241 30.7523 23.7996 30.9421 23.3506 30.9626C23.1284 30.9731 22.9063 30.9393 22.6972 30.8633C22.4882 30.7873 22.2964 30.6706 22.133 30.5199C21.5306 29.9761 20.9282 29.433 20.3258 28.8908C20.2769 28.8468 20.2253 28.8475 20.1625 28.8274C20.0998 28.8074 20.041 28.8199 19.9756 28.8274C19.9101 28.8349 19.9075 28.8558 19.851 28.8896C19.7944 28.9234 19.7639 28.9164 19.7263 28.9704L18.6869 30.2426C18.1018 30.8849 17.393 31.4031 16.6029 31.7663C15.8128 32.1295 14.9575 32.3303 14.088 32.3567C12.7793 32.3901 11.4902 32.0339 10.3852 31.3334C9.28025 30.6329 8.40937 29.6199 7.88364 28.4236C7.35791 27.2273 7.20116 25.9019 7.43337 24.6163C7.66558 23.3308 8.27623 22.1434 9.18746 21.2055L15.6945 13.9243C14.8671 14.8496 14.4374 16.0623 14.498 17.3009C14.5586 18.5395 15.1047 19.7047 16.0185 20.5451Z" fill="white"/>
<path d="M22.4135 14.061C21.974 13.6094 21.4485 13.25 20.8679 13.0038C20.2873 12.7576 19.6632 12.6297 19.0323 12.6275C18.4014 12.6253 17.7765 12.7489 17.1941 12.991C16.6118 13.2331 16.0838 13.5889 15.6412 14.0375C15.1985 14.486 14.8502 15.0183 14.6165 15.603C14.3829 16.1877 14.2687 16.8132 14.2806 17.4425C14.2926 18.0719 14.4304 18.6926 14.6861 19.2681C14.9417 19.8436 15.3101 20.3623 15.7694 20.7938L22.4135 14.061Z" fill="url(#paint0_linear_2404_3575)"/>
<path d="M27.2456 15.5122C27.6315 15.1 28.1658 14.8575 28.7308 14.8383C29.2959 14.8191 29.8454 15.0246 30.2586 15.4096C30.6718 15.7947 30.9147 16.3278 30.934 16.8916C30.9533 17.4554 30.7473 18.0037 30.3614 18.416C29.9556 18.8415 29.7348 19.4098 29.7471 19.997C29.7594 20.5843 30.0038 21.1428 30.4271 21.5511C30.8503 21.9593 31.4181 22.184 32.0067 22.1763C32.5953 22.1687 33.1571 21.9292 33.5695 21.51C34.1818 20.9019 34.6587 20.1718 34.9691 19.3673C35.2801 18.5637 35.4333 17.7079 35.4202 16.8466C35.4025 15.549 35.0005 14.2857 34.2648 13.2156C33.5292 12.1455 32.4927 11.3164 31.2858 10.8328C30.079 10.3491 28.7557 10.2325 27.4826 10.4976C26.2095 10.7626 25.0434 11.3976 24.1311 12.3224L22.4137 14.0635L15.7695 20.7937C16.6831 21.6333 17.8906 22.0813 19.132 22.0411C20.3733 22.0008 21.5492 21.4756 22.4062 20.5786L27.2456 15.5122Z" fill="url(#paint1_linear_2404_3575)"/>
<defs>
<linearGradient id="paint0_linear_2404_3575" x1="22.3925" y1="13.316" x2="13.9528" y2="17.6547" gradientUnits="userSpaceOnUse">
<stop offset="0.0728608" stop-color="#607AE9"/>
<stop offset="0.376351" stop-color="#8F99F4"/>
<stop offset="0.805312" stop-color="#B8B3FA"/>
</linearGradient>
<linearGradient id="paint1_linear_2404_3575" x1="16.0841" y1="18.7233" x2="27.9388" y2="6.93118" gradientUnits="userSpaceOnUse">
<stop offset="0.14" stop-color="#B8B3FA"/>
<stop offset="0.489583" stop-color="#74C4FA"/>
<stop offset="0.854167" stop-color="#73F6FD"/>
</linearGradient>
</defs>
</svg>
