<svg width="25" height="25" viewBox="0 0 25 25" fill="none" xmlns="http://www.w3.org/2000/svg">
<path d="M5.70829 7.87206L6.56163 7.02539L17.7083 18.1721L16.8616 19.0254L14.8083 16.9721C14.0416 17.2254 13.2283 17.3587 12.375 17.3587C9.04163 17.3587 6.19496 15.2854 5.04163 12.3587C5.50163 11.1854 6.23496 10.1521 7.16829 9.33206L5.70829 7.87206ZM12.375 10.3587C12.9054 10.3587 13.4141 10.5694 13.7892 10.9445C14.1642 11.3196 14.375 11.8283 14.375 12.3587C14.3753 12.5858 14.337 12.8112 14.2616 13.0254L11.7083 10.4721C11.9225 10.3967 12.1479 10.3584 12.375 10.3587ZM12.375 7.35872C15.7083 7.35872 18.555 9.43206 19.7083 12.3587C19.1639 13.7407 18.2393 14.9403 17.0416 15.8187L16.095 14.8654C17.0169 14.2277 17.7605 13.3648 18.255 12.3587C17.7161 11.2586 16.8793 10.3318 15.8399 9.68363C14.8004 9.03544 13.6 8.6919 12.375 8.69206C11.6483 8.69206 10.935 8.81206 10.2683 9.02539L9.24163 8.00539C10.2016 7.59206 11.2616 7.35872 12.375 7.35872ZM6.49496 12.3587C7.03386 13.4588 7.8706 14.3856 8.91005 15.0338C9.9495 15.682 11.15 16.0255 12.375 16.0254C12.835 16.0254 13.2883 15.9787 13.7083 15.8854L12.1883 14.3587C11.7244 14.309 11.2915 14.102 10.9616 13.7721C10.6317 13.4422 10.4247 13.0093 10.375 12.5454L8.10829 10.2721C7.44829 10.8387 6.89496 11.5454 6.49496 12.3587Z" fill="#ECECEC"/>
</svg>
