<svg width="25" height="25" viewBox="0 0 25 25" fill="none" xmlns="http://www.w3.org/2000/svg">
<g clip-path="url(#clip0_2460_130)">
<path d="M12.1667 9.54639C12.7303 9.54639 13.2708 9.77027 13.6693 10.1688C14.0678 10.5673 14.2917 11.1078 14.2917 11.6714C14.2917 12.235 14.0678 12.7755 13.6693 13.174C13.2708 13.5725 12.7303 13.7964 12.1667 13.7964C11.6031 13.7964 11.0626 13.5725 10.6641 13.174C10.2655 12.7755 10.0417 12.235 10.0417 11.6714C10.0417 11.1078 10.2655 10.5673 10.6641 10.1688C11.0626 9.77027 11.6031 9.54639 12.1667 9.54639ZM12.1667 6.35889C15.7083 6.35889 18.7329 8.5618 19.9583 11.6714C18.7329 14.781 15.7083 16.9839 12.1667 16.9839C8.625 16.9839 5.60042 14.781 4.375 11.6714C5.60042 8.5618 8.625 6.35889 12.1667 6.35889ZM5.91917 11.6714C6.49168 12.8404 7.38067 13.8252 8.48509 14.5141C9.5895 15.203 10.865 15.5682 12.1667 15.5682C13.4683 15.5682 14.7438 15.203 15.8482 14.5141C16.9527 13.8252 17.8417 12.8404 18.4142 11.6714C17.8417 10.5024 16.9527 9.51752 15.8482 8.82866C14.7438 8.13981 13.4683 7.77462 12.1667 7.77462C10.865 7.77462 9.5895 8.13981 8.48509 8.82866C7.38067 9.51752 6.49168 10.5024 5.91917 11.6714Z" fill="#ECECEC"/>
</g>
<defs>
<clipPath id="clip0_2460_130">
<rect width="17" height="17" fill="white" transform="translate(4.375 3.35889)"/>
</clipPath>
</defs>
</svg>
